<?xml version="1.0" encoding="utf-8"?>
<!-- Generator: Adobe Illustrator 27.3.1, SVG Export Plug-In . SVG Version: 6.00 Build 0)  -->
<svg version="1.1" id="Camada_1" xmlns="http://www.w3.org/2000/svg" xmlns:xlink="http://www.w3.org/1999/xlink" x="0px" y="0px"
	 viewBox="0 0 512 512" style="enable-background:new 0 0 512 512;" xml:space="preserve">
<style type="text/css">
	.st0{fill:#006AFF;stroke:#006AFF;stroke-width:15;stroke-miterlimit:10;}
	.st1{fill:#006AFF;}
	.st2{fill:#006AFF;stroke:#1866A6;stroke-width:15;stroke-miterlimit:10;}
</style>
<g>
	<g>
		<g>
			<path class="st0" d="M155.15,333.83"/>
		</g>
		<g>
			<path class="st0" d="M157.19,335.87"/>
		</g>
	</g>
	<g>
		<g>
			<path class="st1" d="M437.01,74.98C388.66,26.63,324.37,0,256,0C187.62,0,123.32,26.63,74.98,74.98C26.63,123.32,0,187.62,0,256
				c0,68.37,26.63,132.66,74.98,181.01C123.32,485.36,187.62,512,256,512c68.37,0,132.66-26.64,181.01-74.99
				C485.36,388.66,512,324.37,512,256C512,187.62,485.36,123.32,437.01,74.98z M256,494.9c-108.58,0-200.48-72.82-229.42-172.19
				H70.7v-58.77l185.11,185.14L441.3,263.56v58.01h44.45C457.19,421.52,364.99,494.9,256,494.9z M257.03,91.16
				c90.29,4.61,88.6,75.39,88.49,78.37v49.74c-5.33-1.31-11.83-2.87-18.78-4.52c-12.14-2.85-35.57-8.27-62.17-13.85v-0.08
				l-6.81-1.43c-20.09-4.19-43.24-14.13-61.94-26.57c-19.74-13.15-25.69-23.19-25.37-25.76l-0.42-0.06
				c1.45-4.66,3.49-9.72,6.35-14.82C190.6,106.86,217.73,93.05,257.03,91.16z M268.33,328.74l77.19-77.19v83.62l-35.37,35.38
				L268.33,328.74z M298.04,382.65l-33.48,33.48v-66.96L298.04,382.65z M264.56,308.29v-89.91c29.18,6.18,56.9,12.62,73.3,16.63
				L264.56,308.29z M186.34,187.07c18.35,12.21,40.72,22.24,61.12,27.48v93.32l-80.97-80.97v-55.6
				C172.43,177.2,179.62,182.6,186.34,187.07z M244.13,328.74l-42.24,42.23l-35.41-35.42V251.1L244.13,328.74z M247.46,349.6v66.95
				l-33.47-33.48L247.46,349.6z M458.41,304.46v-82.21l-95.79,95.8v-83.61l1.51-1.51l49.01-49.01l-12.1-12.1l-38.42,38.42v-40.18
				c0.08-2.62,0.34-24.09-11.86-46.21c-11.75-21.31-37.56-47.24-93.82-49.84l-0.05,1l-0.05-0.99c-57.19,2.59-83.44,28.5-95.39,49.79
				c-12.43,22.12-12.17,43.62-12.08,46.26v39.72l-37.97-37.97l-12.1,12.1l50.07,50.07v84.45l-95.79-95.81v82.97H22.28
				C18.89,289.59,17.1,273,17.1,256C17.1,124.27,124.27,17.1,256,17.1c131.72,0,238.9,107.17,238.9,238.9
				c0,16.6-1.7,32.81-4.94,48.46H458.41z"/>
		</g>
		<g>
			<path class="st0" d="M357.3,333.83"/>
		</g>
		<g>
			<path class="st0" d="M355.26,335.87"/>
		</g>
	</g>
	<g>
		<circle class="st1" cx="92.93" cy="165.91" r="8.55"/>
	</g>
	<g>
		<circle class="st1" cx="420.2" cy="165.91" r="8.55"/>
	</g>
	<g>
		<circle class="st1" cx="256" cy="165.91" r="8.55"/>
	</g>
	<g>
		<path class="st2" d="M382.73,425.74"/>
	</g>
</g>
</svg>
